<svg width="274" height="274" viewBox="0 0 274 274" fill="none" xmlns="http://www.w3.org/2000/svg">
<rect width="274" height="274" rx="49" fill="#5800FF"/>
<mask id="path-2-outside-1_19_3" maskUnits="userSpaceOnUse" x="29" y="74" width="201" height="126" fill="black">
<rect fill="white" x="29" y="74" width="201" height="126"/>
<path d="M105.058 122.324C103.911 120.471 102.279 119.06 100.161 118.089C98.0433 117.03 95.4846 116.501 92.4846 116.501C86.8376 116.501 82.47 118.354 79.3818 122.06C76.2936 125.677 74.7495 130.662 74.7495 137.015C74.7495 144.339 76.4701 149.809 79.9112 153.427C83.3524 157.044 88.6464 158.853 95.7934 158.853C102.587 158.853 108.058 156.118 112.205 150.648H88.7788V129.868H136.558V159.25C132.499 166.221 126.896 172.221 119.749 177.25C112.602 182.191 103.558 184.662 92.6169 184.662C82.9112 184.662 74.4407 182.676 67.2055 178.706C60.0586 174.647 54.5439 169 50.6616 161.765C46.8676 154.53 44.9705 146.28 44.9705 137.015C44.9705 127.751 46.8676 119.501 50.6616 112.266C54.5439 105.03 60.0586 99.4276 67.2055 95.4571C74.3525 91.3983 82.7347 89.3689 92.3522 89.3689C104.617 89.3689 114.587 92.3248 122.264 98.2365C130.028 104.148 134.616 112.177 136.028 122.324H105.058Z"/>
<path d="M177.051 160.574H214.638V184H144.492V161.897L181.551 113.589H144.492V90.2954H214.638V112.398L177.051 160.574Z"/>
</mask>
<path d="M105.058 122.324C103.911 120.471 102.279 119.06 100.161 118.089C98.0433 117.03 95.4846 116.501 92.4846 116.501C86.8376 116.501 82.47 118.354 79.3818 122.06C76.2936 125.677 74.7495 130.662 74.7495 137.015C74.7495 144.339 76.4701 149.809 79.9112 153.427C83.3524 157.044 88.6464 158.853 95.7934 158.853C102.587 158.853 108.058 156.118 112.205 150.648H88.7788V129.868H136.558V159.25C132.499 166.221 126.896 172.221 119.749 177.25C112.602 182.191 103.558 184.662 92.6169 184.662C82.9112 184.662 74.4407 182.676 67.2055 178.706C60.0586 174.647 54.5439 169 50.6616 161.765C46.8676 154.53 44.9705 146.28 44.9705 137.015C44.9705 127.751 46.8676 119.501 50.6616 112.266C54.5439 105.03 60.0586 99.4276 67.2055 95.4571C74.3525 91.3983 82.7347 89.3689 92.3522 89.3689C104.617 89.3689 114.587 92.3248 122.264 98.2365C130.028 104.148 134.616 112.177 136.028 122.324H105.058Z" fill="#5800FF"/>
<path d="M177.051 160.574H214.638V184H144.492V161.897L181.551 113.589H144.492V90.2954H214.638V112.398L177.051 160.574Z" fill="#E900FF"/>
<path d="M105.058 122.324L92.2445 130.257C94.9915 134.694 99.839 137.394 105.058 137.394V122.324ZM100.161 118.089L93.4214 131.568C93.5737 131.644 93.7272 131.718 93.882 131.789L100.161 118.089ZM79.3818 122.06L90.8435 131.844C90.8823 131.799 90.9207 131.753 90.9589 131.707L79.3818 122.06ZM79.9112 153.427L68.9921 163.813L68.9921 163.813L79.9112 153.427ZM112.205 150.648L124.214 159.751C127.671 155.191 128.247 149.067 125.701 143.943C123.155 138.818 117.927 135.578 112.205 135.578V150.648ZM88.7788 150.648H73.7088C73.7088 158.97 80.4558 165.718 88.7788 165.718V150.648ZM88.7788 129.868V114.798C80.4558 114.798 73.7088 121.545 73.7088 129.868H88.7788ZM136.558 129.868H151.628C151.628 121.545 144.88 114.798 136.558 114.798V129.868ZM136.558 159.25L149.581 166.833C150.921 164.531 151.628 161.915 151.628 159.25H136.558ZM119.749 177.25L128.319 189.646C128.353 189.622 128.387 189.598 128.422 189.574L119.749 177.25ZM67.2055 178.706L59.7636 191.81C59.8273 191.846 59.8912 191.882 59.9554 191.917L67.2055 178.706ZM50.6616 161.765L37.3153 168.764C37.3375 168.806 37.3599 168.848 37.3825 168.89L50.6616 161.765ZM50.6616 112.266L37.3826 105.14C37.3599 105.182 37.3375 105.225 37.3153 105.267L50.6616 112.266ZM67.2055 95.4571L74.5242 108.631C74.5654 108.608 74.6065 108.585 74.6475 108.561L67.2055 95.4571ZM122.264 98.2365L113.069 110.176C113.091 110.193 113.113 110.21 113.135 110.227L122.264 98.2365ZM136.028 122.324V137.394C140.387 137.394 144.533 135.507 147.395 132.219C150.257 128.931 151.555 124.565 150.954 120.248L136.028 122.324ZM117.871 114.392C115.052 109.839 111.061 106.508 106.44 104.39L93.882 131.789C93.7473 131.727 93.4593 131.572 93.1154 131.274C92.765 130.971 92.4668 130.616 92.2445 130.257L117.871 114.392ZM106.9 104.61C102.207 102.263 97.2163 101.431 92.4846 101.431V131.571C93.7528 131.571 93.8795 131.797 93.4214 131.568L106.9 104.61ZM92.4846 101.431C83.2136 101.431 74.2582 104.668 67.8047 112.412L90.9589 131.707C91.0015 131.656 90.9976 131.671 90.9455 131.709C90.8926 131.749 90.8532 131.766 90.8593 131.764C90.8625 131.762 91.3056 131.571 92.4846 131.571V101.431ZM67.9201 112.275C61.8201 119.421 59.6795 128.29 59.6795 137.015H89.8195C89.8195 133.035 90.7672 131.933 90.8435 131.844L67.9201 112.275ZM59.6795 137.015C59.6795 146.419 61.8678 156.324 68.9921 163.813L90.8303 143.04C91.0724 143.295 89.8195 142.258 89.8195 137.015H59.6795ZM68.9921 163.813C76.3203 171.517 86.3252 173.923 95.7934 173.923V143.783C90.9676 143.783 90.3844 142.572 90.8303 143.04L68.9921 163.813ZM95.7934 173.923C107.361 173.923 117.253 168.934 124.214 159.751L100.196 141.544C98.8627 143.302 97.8137 143.783 95.7934 143.783V173.923ZM112.205 135.578H88.7788V165.718H112.205V135.578ZM103.849 150.648V129.868H73.7088V150.648H103.849ZM88.7788 144.938H136.558V114.798H88.7788V144.938ZM121.488 129.868V159.25H151.628V129.868H121.488ZM123.534 151.667C120.656 156.61 116.599 161.04 111.076 164.926L128.422 189.574C137.193 183.402 144.341 175.832 149.581 166.833L123.534 151.667ZM111.179 164.854C107.135 167.65 101.292 169.592 92.6169 169.592V199.732C105.824 199.732 118.069 196.732 128.319 189.646L111.179 164.854ZM92.6169 169.592C84.9983 169.592 79.1071 168.047 74.4557 165.495L59.9554 191.917C69.7743 197.306 80.8241 199.732 92.6169 199.732V169.592ZM74.6475 165.602C69.9683 162.944 66.4784 159.369 63.9407 154.64L37.3825 168.89C42.6095 178.632 50.1488 186.35 59.7636 191.81L74.6475 165.602ZM64.0079 154.766C61.4901 149.965 60.0405 144.172 60.0405 137.015H29.9005C29.9005 148.388 32.2451 159.095 37.3153 168.764L64.0079 154.766ZM60.0405 137.015C60.0405 129.859 61.4901 124.066 64.0079 119.264L37.3153 105.267C32.2451 114.936 29.9005 125.643 29.9005 137.015H60.0405ZM63.9407 119.391C66.4633 114.69 69.9142 111.192 74.5242 108.631L59.8869 82.2835C50.2029 87.6635 42.6246 95.371 37.3826 105.14L63.9407 119.391ZM74.6475 108.561C79.1662 105.995 84.8965 104.439 92.3522 104.439V74.2989C80.5729 74.2989 69.5387 76.8015 59.7636 82.3528L74.6475 108.561ZM92.3522 104.439C102.187 104.439 108.66 106.781 113.069 110.176L131.459 86.2967C120.515 77.8688 107.046 74.2989 92.3522 74.2989V104.439ZM113.135 110.227C117.563 113.598 120.208 117.976 121.102 124.401L150.954 120.248C149.025 106.379 142.493 94.6978 131.393 86.2462L113.135 110.227ZM136.028 107.254H105.058V137.394H136.028V107.254ZM177.051 160.574L165.169 151.304C161.626 155.845 160.981 162.008 163.508 167.185C166.035 172.361 171.291 175.644 177.051 175.644V160.574ZM214.638 160.574H229.708C229.708 152.251 222.961 145.504 214.638 145.504V160.574ZM214.638 184V199.07C222.961 199.07 229.708 192.323 229.708 184H214.638ZM144.492 184H129.422C129.422 192.323 136.169 199.07 144.492 199.07V184ZM144.492 161.897L132.535 152.725C130.517 155.356 129.422 158.581 129.422 161.897H144.492ZM181.551 113.589L193.508 122.762C197 118.209 197.604 112.069 195.066 106.923C192.528 101.777 187.288 98.5192 181.551 98.5192V113.589ZM144.492 113.589H129.422C129.422 121.912 136.169 128.659 144.492 128.659V113.589ZM144.492 90.2954V75.2254C136.169 75.2254 129.422 81.9725 129.422 90.2954H144.492ZM214.638 90.2954H229.708C229.708 81.9725 222.961 75.2254 214.638 75.2254V90.2954ZM214.638 112.398L226.52 121.668C228.586 119.02 229.708 115.757 229.708 112.398H214.638ZM177.051 175.644H214.638V145.504H177.051V175.644ZM199.568 160.574V184H229.708V160.574H199.568ZM214.638 168.93H144.492V199.07H214.638V168.93ZM159.562 184V161.897H129.422V184H159.562ZM156.449 171.07L193.508 122.762L169.594 104.417L132.535 152.725L156.449 171.07ZM181.551 98.5192H144.492V128.659H181.551V98.5192ZM159.562 113.589V90.2954H129.422V113.589H159.562ZM144.492 105.365H214.638V75.2254H144.492V105.365ZM199.568 90.2954V112.398H229.708V90.2954H199.568ZM202.757 103.128L165.169 151.304L188.932 169.844L226.52 121.668L202.757 103.128Z" fill="#FFC600" mask="url(#path-2-outside-1_19_3)"/>
</svg>
